<svg width="232" height="235" viewBox="0 0 232 235" fill="white" xmlns="http://www.w3.org/2000/svg">
<path d="M64.873 123.178C66.4506 121.501 68.717 119.074 71.5029 116.077C77.0748 110.084 84.7237 101.812 93.0898 92.6962C101.459 83.577 109.611 74.9564 115.999 68.3964C119.193 65.1167 121.948 62.3501 124.069 60.2928C126.174 58.2522 127.694 56.8713 128.396 56.4032L128.399 56.4012C134.228 52.5779 137.889 50.5046 144.672 49.411C151.402 48.326 161.222 48.202 179.374 48.202C189.933 48.202 197.769 48.2254 203.692 47.9335C209.625 47.6411 213.574 47.0339 216.388 45.8085C219.163 44.5998 220.865 42.7766 222.267 39.9462C223.331 37.7963 224.213 35.0897 225.249 31.6483L226.349 27.955C227.72 23.0918 229.587 15.9944 230.459 12.1356V12.1346C231.15 8.86852 231.442 7.0717 231.34 5.81628C231.244 4.63405 230.797 3.92309 229.827 2.83191C229.56 2.53529 229.338 2.31391 228.96 2.11609C228.569 1.91153 227.981 1.7182 226.974 1.54675C224.951 1.20261 221.373 0.968582 214.609 0.812378C201.099 0.500355 175.008 0.499878 123.554 0.499878L107.537 0.525269C72.1495 0.588868 50.3993 0.691614 36.9912 0.937378C29.3277 1.07785 24.3995 1.26509 21.2119 1.51746C19.6184 1.64363 18.4711 1.78471 17.6396 1.94226C16.8021 2.10101 16.3178 2.27043 16.0293 2.43347L16.0234 2.4364L16.0166 2.44031C13.8973 3.55895 12.1165 5.51764 10.2686 9.25964C8.41648 13.0102 6.52247 18.4991 4.15039 26.6141V26.6151L3.33496 29.413C1.55776 35.5724 0.649727 39.2122 0.516602 41.5809C0.441612 42.9158 0.618563 43.7891 0.984375 44.4637C1.35308 45.1436 1.94567 45.6829 2.83008 46.2928L2.83691 46.2968L2.84277 46.3016C3.35044 46.6757 4.10281 47.0001 5.51367 47.2626C6.92658 47.5254 8.95973 47.719 11.998 47.8593C18.0718 48.1396 28.0801 48.202 45.0049 48.202H85.2852L85.0654 48.8602L83.3174 54.1053C81.8228 58.7144 78.8293 69.3178 69.4639 103.158L69.4609 103.167C68.9631 104.847 68.2783 107.339 67.5439 109.995C66.8121 112.642 66.0311 115.45 65.3438 117.763H65.3447C64.7199 120.137 64.1582 122.257 63.7686 123.784C63.6986 124.058 63.6351 124.313 63.5771 124.546C63.9343 124.17 64.3694 123.713 64.873 123.178Z" fill="white" stroke="black"/>
<path d="M168.324 233.266C172.664 234.112 179.293 234.271 189.727 234.021C197.727 233.834 202.38 233.647 205.314 233.261C208.217 232.879 209.359 232.312 210.38 231.406V231.405C211.084 230.76 211.707 229.932 212.151 229.102C212.6 228.263 212.84 227.474 212.84 226.903C212.84 226.928 212.842 226.909 212.818 226.798C212.798 226.704 212.767 226.576 212.723 226.411C212.637 226.082 212.507 225.625 212.336 225.046C211.995 223.888 211.492 222.256 210.852 220.215C209.572 216.134 207.74 210.426 205.535 203.63C201.123 190.037 195.219 172.09 189.249 154.085C183.278 136.08 177.242 118.016 172.565 104.189C170.227 97.2757 168.228 91.4223 166.749 87.1649C166.009 85.0364 165.399 83.3082 164.942 82.0468C164.48 80.7742 164.184 80.0108 164.067 79.7743C163.9 79.4706 163.548 79.1588 162.964 78.87C162.382 78.5819 161.617 78.3403 160.705 78.1523C158.882 77.7764 156.543 77.6287 154.071 77.706C151.601 77.7832 149.017 78.0841 146.709 78.5956C144.393 79.1092 142.394 79.8262 141.064 80.7128C140.548 81.057 139.327 82.1513 137.526 83.8857C135.741 85.6041 133.422 87.9153 130.731 90.6532C125.349 96.1285 118.484 103.306 111.431 110.858H111.43C97.4433 125.969 78.3384 146.449 69.0972 156.314H69.0962C60.4122 165.686 55.5446 171.209 52.311 176.284C49.2908 181.024 47.6884 185.385 45.7534 192.179L45.3618 193.57C44.1126 198.067 41.4895 207.31 39.6167 213.928C37.6776 220.809 36.8017 225.188 37.0278 228.082C37.1394 229.51 37.5173 230.538 38.1401 231.322C38.7654 232.109 39.6748 232.698 40.9351 233.179C41.368 233.341 42.2375 233.501 43.522 233.638C44.7891 233.773 46.4128 233.881 48.3188 233.959C52.13 234.114 57.0518 234.146 62.4761 234.021H62.478C68.8069 233.896 73.421 233.88 76.9761 233.35C80.5046 232.823 82.9154 231.799 84.8647 229.701C86.8384 227.577 88.3843 224.307 90.0571 219.176C91.7275 214.052 93.5023 207.148 95.9712 197.804L95.9722 197.8C97.8454 190.931 100.349 182.668 101.608 179.395L101.61 179.391C102.346 177.535 104.287 174.035 106.791 169.862C109.302 165.676 112.401 160.776 115.471 156.104C118.541 151.433 121.586 146.985 123.991 143.701C125.192 142.061 126.24 140.703 127.053 139.753C127.459 139.279 127.815 138.895 128.11 138.626C128.256 138.492 128.4 138.376 128.535 138.29C128.651 138.216 128.836 138.114 129.048 138.114C129.192 138.114 129.301 138.171 129.358 138.208C129.419 138.247 129.467 138.292 129.5 138.328C129.568 138.399 129.628 138.486 129.682 138.571C129.792 138.745 129.92 138.987 130.062 139.282C130.347 139.876 130.717 140.743 131.159 141.845C132.044 144.052 133.233 147.24 134.638 151.168C137.45 159.025 141.136 169.863 145.008 181.792C148.941 193.779 152.687 205.016 155.558 213.49C156.994 217.727 158.211 221.273 159.124 223.876C160.035 226.476 160.631 228.102 160.84 228.556C161.461 229.765 162.265 230.723 163.426 231.486C164.598 232.256 166.161 232.844 168.324 233.266Z" fill="white" stroke="black"/>
</svg>
